<svg width="81" height="74" viewBox="0 0 81 74" fill="none" xmlns="http://www.w3.org/2000/svg">
<path d="M33.6783 14.7052C33.1304 10.7097 23.9281 0.349733 19.8071 0.0324314C17.5016 -0.0990397 15.2042 0.388108 13.1915 1.43521C9.30485 3.32705 4.57859 6.49608 2.77952 9.31094C-3.79441 19.5919 3.94046 38.1617 21.5897 54.4691C35.032 66.889 49.8923 73.9957 61.1298 73.9949C64.3935 74.0692 67.6184 73.3282 70.4642 71.85C73.5112 70.1864 76.9409 65.8195 78.9884 62.2293C80.1206 60.3695 80.6477 58.2473 80.5063 56.1174C80.1624 52.309 68.9508 43.8063 64.6257 43.3004C63.589 43.1785 60.4327 42.8118 51.0072 50.4814C50.8881 50.5764 50.7368 50.63 50.5795 50.6329C50.4222 50.6357 50.2688 50.5877 50.1458 50.497C45.6756 47.1848 41.4148 43.6383 37.3843 39.875C33.3112 36.1515 29.473 32.2149 25.8887 28.0845C25.7902 27.9713 25.7379 27.8297 25.7409 27.6844C25.744 27.5392 25.8021 27.3996 25.9052 27.2899C34.2089 18.5778 33.8094 15.6627 33.6783 14.7052ZM22.4015 30.6322C26.0928 34.8877 30.0458 38.9436 34.241 42.7798C38.3932 46.656 42.7831 50.3086 47.3889 53.7194C48.3282 54.4067 49.4987 54.7678 50.6966 54.7397C51.8944 54.7115 53.0435 54.2959 53.9438 53.5654C60.404 48.3092 63.4613 47.3219 64.0674 47.3753C66.5222 47.6625 75.313 54.3716 76.0822 56.529C76.1272 57.8546 75.7715 59.1655 75.055 60.3146C73.0778 63.7817 70.0684 67.295 68.2031 68.3135C60.4804 72.5303 42.6211 68.092 24.733 51.5648C6.84668 35.0376 2.04406 18.5361 6.60706 11.4001C7.7089 9.67717 11.5112 6.89642 15.2633 5.0696C16.3981 4.47558 17.6724 4.14572 18.9761 4.10848C19.1055 4.10848 19.234 4.11249 19.3608 4.12052C21.6956 4.83094 28.9565 12.9533 29.2674 15.2206C29.3333 15.7987 28.2574 18.6067 22.5691 24.575C21.7775 25.4065 21.3271 26.4684 21.2965 27.5755C21.2658 28.6826 21.6569 29.7644 22.4015 30.6322Z" fill="white"/>
<path d="M78.3163 34.8503C78.3623 34.8503 78.4084 34.8491 78.4553 34.8463C78.7466 34.8296 79.0316 34.7602 79.2938 34.6418C79.5561 34.5235 79.7905 34.3585 79.9838 34.1565C80.1771 33.9544 80.3254 33.7191 80.4202 33.4641C80.5151 33.209 80.5547 32.9392 80.5367 32.67C79.9587 24.1815 76.0484 16.1796 69.5395 10.1654C63.0305 4.1513 54.3703 0.538316 45.1834 0.00432931C44.8915 -0.013209 44.5988 0.0226523 44.3219 0.109857C44.0451 0.197063 43.7896 0.333897 43.5701 0.512517C43.3506 0.691136 43.1714 0.908028 43.0428 1.15076C42.9142 1.39349 42.8387 1.65729 42.8207 1.92703C42.8026 2.19677 42.8423 2.46716 42.9376 2.72268C43.0329 2.9782 43.1818 3.21384 43.3758 3.41609C43.5698 3.61833 43.8051 3.78321 44.0682 3.90127C44.3313 4.01932 44.6171 4.08824 44.909 4.10406C53.014 4.57517 60.6545 7.76264 66.397 13.0685C72.1395 18.3743 75.5895 25.4339 76.0996 32.9228C76.1345 33.4443 76.3832 33.9339 76.795 34.292C77.2068 34.6501 77.7508 34.8497 78.3163 34.8503Z" fill="white"/>
<path d="M45.2442 9.89982C44.9532 9.87528 44.6597 9.90402 44.3807 9.98438C44.1017 10.0647 43.8426 10.1951 43.6181 10.3681C43.3937 10.5411 43.2084 10.7533 43.0729 10.9926C42.9373 11.2318 42.8541 11.4934 42.8281 11.7624C42.802 12.0314 42.8337 12.3024 42.9211 12.5601C43.0086 12.8178 43.1502 13.057 43.3379 13.264C43.5255 13.4711 43.7555 13.6419 44.0146 13.7667C44.2738 13.8916 44.5571 13.968 44.8482 13.9915C50.1415 14.4218 55.1019 16.5602 58.8596 20.0318C62.6172 23.5034 64.9322 28.0864 65.3986 32.9773C65.4474 33.4883 65.7015 33.9639 66.1108 34.3106C66.5201 34.6572 67.0549 34.8497 67.6101 34.8503C67.6761 34.8503 67.7421 34.8479 67.809 34.8422C68.0997 34.8185 68.3825 34.742 68.6413 34.6172C68.9001 34.4925 69.1297 34.3218 69.3171 34.115C69.5044 33.9083 69.6459 33.6694 69.7334 33.4121C69.8209 33.1548 69.8526 32.8841 69.8269 32.6155C69.2693 26.7644 66.5003 21.2814 62.0054 17.1279C57.5105 12.9744 51.5767 10.4154 45.2442 9.89982Z" fill="white"/>
<path d="M44.699 23.8986C47.2043 24.2607 49.5206 25.3485 51.3137 27.0054C53.1067 28.6622 54.284 30.8024 54.6758 33.1174C54.7689 33.6546 55.0889 34.1359 55.5656 34.4554C56.0423 34.7749 56.6367 34.9066 57.2184 34.8216C57.8001 34.7365 58.3215 34.4418 58.6682 34.0019C59.0149 33.5621 59.1586 33.0131 59.0677 32.4755C58.5306 29.3028 56.9169 26.3697 54.4593 24.099C52.0017 21.8284 48.8272 20.3375 45.3935 19.8414C44.8112 19.7563 44.2162 19.8884 43.7393 20.2087C43.2625 20.529 42.9428 21.0111 42.8507 21.5492C42.7586 22.0872 42.9016 22.637 43.2482 23.0776C43.5948 23.5182 44.1167 23.8135 44.699 23.8986Z" fill="white"/>
</svg>
