<svg width="133" height="91" viewBox="0 0 133 91" fill="none" xmlns="http://www.w3.org/2000/svg">
<path d="M132.49 33.9547C132.063 33.334 131.416 32.9214 130.699 32.8147C130.569 32.7947 127.457 32.3369 122.652 32.3369C118.422 32.3369 113.408 32.688 108.137 33.7647C108.333 19.778 104.548 8.50395 104.308 7.80181C104.058 7.08157 103.545 6.49525 102.882 6.18218C102.218 5.86911 101.467 5.85283 100.791 6.14237C100.19 6.39934 91.3016 10.2883 82.347 18.3158C76.2144 7.91039 68.7485 1.13872 68.2226 0.6664C67.2256 -0.222133 65.7693 -0.222133 64.7722 0.6664C64.2447 1.13872 56.7805 7.90858 50.6513 18.314C41.6983 10.2846 32.8102 6.39934 32.2093 6.14056C31.5332 5.85283 30.782 5.86731 30.1179 6.18037C29.4554 6.49163 28.9415 7.07795 28.6923 7.8C28.4499 8.50214 24.6665 19.7762 24.8629 33.7629C19.5925 32.6862 14.5782 32.3351 10.3476 32.3351C5.54499 32.3351 2.43091 32.7929 2.30116 32.8128C1.5841 32.9196 0.937039 33.3322 0.510219 33.9529C0.0851065 34.5754 -0.0856208 35.3536 0.0407179 36.11C0.228519 37.2193 4.75793 63.4066 23.2887 77.6774C31.6988 84.1559 40.9608 87.7806 48.8911 89.4256C51.8754 90.354 58.6328 91 66.4983 91C74.3552 91 81.1007 90.3558 84.0935 89.431C92.0272 87.7843 101.294 84.1614 109.713 77.6774C128.244 63.4066 132.775 37.2211 132.959 36.1136C133.086 35.3572 132.915 34.5772 132.49 33.9547ZM100.142 12.7132C101.976 19.7237 105.578 37.8979 98.8956 53.8119C94.1904 65.0136 86.8883 73.1443 80.7302 78.0629C86.0432 69.7078 90.4361 57.9306 90.4361 45.2306C90.4361 37.2428 88.1568 29.8125 85.0649 23.39C90.8816 18.019 96.8281 14.4703 100.142 12.7132ZM66.5 6.68526C71.4084 11.6817 85.0837 27.2192 85.0837 45.2324C85.0837 67.4928 70.2611 84.7875 66.4983 84.7893C62.7389 84.7875 47.9197 67.4892 47.9197 45.2306C47.9197 27.2591 61.5984 11.6889 66.5 6.68526ZM32.8649 12.715C36.1804 14.4721 42.1235 18.0208 47.9384 23.3919C44.8466 29.8143 42.5673 37.2447 42.5673 45.2306C42.5673 57.9325 46.9568 69.7042 52.2698 78.0611C46.1134 73.1425 38.8113 65.0118 34.1078 53.8119C27.4426 37.9432 31.0364 19.7382 32.8649 12.715ZM5.9701 38.1495C7.14471 38.0717 8.63004 38.0083 10.3493 38.0083C14.0558 38.0083 19.3893 38.3268 25.1889 39.6587C25.7199 45.0551 26.9321 50.6722 29.2198 56.1192C34.4509 68.5786 43.1478 78.4176 50.822 84.0492C43.3885 82.6521 34.5073 79.3097 26.4318 73.09C13.1714 62.8728 7.69616 45.1944 5.9701 38.1495ZM106.57 73.09C98.4961 79.3097 89.6114 82.6503 82.1779 84.0492C89.8539 78.4194 98.5508 68.5804 103.782 56.1192C106.07 50.674 107.283 45.0569 107.813 39.6587C113.612 38.3268 118.946 38.0083 122.652 38.0083C124.375 38.0083 125.862 38.0717 127.035 38.1513C125.321 45.189 119.868 62.8456 106.57 73.09Z" fill="white"/>
</svg>
