<svg width="112" height="79" viewBox="0 0 112 79" fill="none" xmlns="http://www.w3.org/2000/svg">
<path d="M111.145 7.4155C111.145 3.31226 107.836 0 103.736 0H7.40969C3.30966 0 0 3.31226 0 7.4155V71.436C0 75.5393 3.30966 78.8515 7.40969 78.8515H103.736C107.836 78.8515 111.145 75.5393 111.145 71.436V7.4155ZM106.206 71.436C106.206 72.7955 105.094 73.9079 103.736 73.9079H7.40969C6.05125 73.9079 4.9398 72.7955 4.9398 71.436V7.4155C4.9398 6.056 6.05125 4.94367 7.40969 4.94367H103.736C105.094 4.94367 106.206 6.056 106.206 7.4155V71.436Z" fill="white"/>
<path d="M44.6311 32.4304C44.6311 23.9767 37.74 17.0803 29.293 17.0803C20.8459 17.0803 13.9549 23.9767 13.9549 32.4304C13.9549 36.8797 15.8567 40.9088 18.8947 43.702L18.2525 58.9285V59.0274C18.2525 60.1891 18.9194 61.252 19.9815 61.7217C21.0188 62.1913 22.2538 62.0183 23.1429 61.2767L29.293 55.9623L35.443 61.2767C35.9864 61.7464 36.678 61.9936 37.3696 61.9936C37.7894 61.9936 38.2093 61.8947 38.5798 61.7217C39.6172 61.252 40.3087 60.1891 40.3087 59.0274L39.6666 43.702C42.7292 40.9088 44.6311 36.9044 44.6311 32.4304ZM35.196 54.5533L31.2689 51.1669C30.1575 50.1535 28.4285 50.1535 27.3171 51.1669L23.3899 54.5533L23.711 46.7423C25.4399 47.4097 27.3171 47.8052 29.293 47.8052C31.2689 47.8052 33.146 47.4345 34.875 46.7423L35.196 54.5533ZM29.293 42.8368C23.5628 42.8368 18.8947 38.1651 18.8947 32.4304C18.8947 26.6958 23.5628 22.024 29.293 22.024C35.0232 22.024 39.6913 26.6958 39.6913 32.4304C39.6913 38.1651 35.0232 42.8368 29.293 42.8368Z" fill="white"/>
<path d="M53.5968 25.9542H76.0729C77.4313 25.9542 78.5428 24.8418 78.5428 23.4823C78.5428 22.1228 77.4313 21.0105 76.0729 21.0105H53.5968C52.2383 21.0105 51.1269 22.1228 51.1269 23.4823C51.1269 24.8418 52.2383 25.9542 53.5968 25.9542Z" fill="white"/>
<path d="M94.8441 31.6394H53.5968C52.2383 31.6394 51.1269 32.7517 51.1269 34.1112C51.1269 35.4707 52.2383 36.5831 53.5968 36.5831H94.8441C96.2025 36.5831 97.314 35.4707 97.314 34.1112C97.314 32.7517 96.2025 31.6394 94.8441 31.6394Z" fill="white"/>
<path d="M94.8441 42.5156H53.5968C52.2383 42.5156 51.1269 43.628 51.1269 44.9875C51.1269 46.347 52.2383 47.4593 53.5968 47.4593H94.8441C96.2025 47.4593 97.314 46.347 97.314 44.9875C97.314 43.628 96.2025 42.5156 94.8441 42.5156Z" fill="white"/>
<path d="M94.8441 53.1445H53.5968C52.2383 53.1445 51.1269 54.2569 51.1269 55.6164C51.1269 56.9759 52.2383 58.0882 53.5968 58.0882H94.8441C96.2025 58.0882 97.314 56.9759 97.314 55.6164C97.314 54.2569 96.2025 53.1445 94.8441 53.1445Z" fill="white"/>
</svg>
