<svg width="507" height="168" viewBox="0 0 507 168" fill="none" xmlns="http://www.w3.org/2000/svg">
<path d="M331.017 67.7528C331.148 68.2095 331.409 68.34 331.8 68.34H332.061C332.388 68.34 332.714 68.1443 332.844 67.7528L340.674 45.7635H340.74L348.635 67.7528C348.765 68.1443 349.092 68.34 349.418 68.34H349.679C350.07 68.34 350.331 68.2095 350.462 67.7528L358.292 42.6315C358.488 42.0443 358.488 41.5875 357.9 41.5875H356.465C356.139 41.5875 355.747 41.718 355.617 42.1748L349.483 62.7285H349.418L341.653 41.5223C341.523 41.1308 341.196 40.935 340.87 40.935H340.609C340.218 40.935 339.957 41.0655 339.826 41.5223L332.061 62.7285H331.996L325.863 42.1748C325.732 41.718 325.341 41.5875 325.014 41.5875H323.579C322.992 41.5875 322.992 42.0443 323.187 42.6315L331.017 67.7528ZM366.935 28.7985C368.175 28.7985 369.153 27.8198 369.153 26.6453C369.153 25.4055 368.175 24.3615 366.935 24.3615C365.695 24.3615 364.716 25.4055 364.716 26.6453C364.716 27.8198 365.695 28.7985 366.935 28.7985ZM365.499 66.8393C365.499 67.296 365.76 67.6875 366.217 67.6875H367.522C368.109 67.6875 368.37 67.3613 368.37 66.8393V42.4358C368.37 41.979 367.979 41.5875 367.522 41.5875H366.348C365.891 41.5875 365.499 41.979 365.499 42.4358V66.8393ZM377.068 65.4038C378.503 66.513 381.178 68.34 385.615 68.34C390.835 68.34 394.881 65.0123 394.881 61.0973C394.881 56.334 390.574 54.7028 385.681 52.8758C381.831 51.5055 379.482 50.2658 379.482 47.6558C379.482 45.894 380.983 43.4798 385.093 43.4798C387.899 43.4798 390.509 44.9153 391.096 45.3068C391.553 45.5678 392.075 45.4373 392.336 44.9805L392.728 44.2628C392.989 43.806 392.858 43.284 392.467 43.023C391.162 42.1748 388.552 40.935 385.093 40.935C379.09 40.935 376.546 44.85 376.546 47.721C376.546 51.7665 379.939 53.7893 384.571 55.4205C388.943 57.0518 391.879 58.2915 391.879 61.293C391.879 63.8378 389.335 65.9258 385.615 65.9258C381.961 65.9258 379.286 63.903 378.634 63.381C378.177 62.9895 377.655 63.12 377.459 63.4463L376.807 64.4903C376.611 64.8165 376.807 65.208 377.068 65.4038ZM400.563 54.6375C400.563 62.2718 405.848 68.34 412.634 68.34C417.658 68.34 420.856 65.4038 421.639 64.5555L421.834 66.8393C421.9 67.4265 422.226 67.6875 422.748 67.6875H423.4C423.857 67.6875 424.249 67.296 424.249 66.8393V22.8608C424.249 22.404 423.857 22.0125 423.466 22.0125H422.291C421.769 22.0125 421.443 22.404 421.443 22.8608V43.545C421.443 43.545 418.376 40.935 413.417 40.935C405.979 40.935 400.563 46.938 400.563 54.6375ZM403.434 54.6375C403.434 48.4388 407.675 43.7408 413.678 43.7408C418.441 43.7408 421.443 46.4813 421.443 46.4813V61.0973C421.312 61.3583 418.507 65.73 412.83 65.73C407.349 65.73 403.434 60.7058 403.434 54.6375ZM432.231 54.5723C432.231 62.2065 437.973 68.34 445.346 68.34C452.654 68.34 458.461 62.2065 458.461 54.5723C458.461 47.1338 452.654 40.935 445.346 40.935C437.973 40.935 432.231 47.1338 432.231 54.5723ZM435.037 54.5723C435.037 48.5693 439.539 43.6755 445.346 43.6755C451.088 43.6755 455.59 48.5693 455.59 54.5723C455.59 60.771 451.088 65.6648 445.346 65.6648C439.539 65.6648 435.037 60.771 435.037 54.5723ZM466.433 66.8393C466.433 67.296 466.694 67.6875 467.151 67.6875H468.456C469.043 67.6875 469.304 67.3613 469.304 66.8393V48.243C469.63 47.721 472.501 43.7408 477.786 43.7408C482.68 43.7408 485.355 46.8728 485.355 52.8758V66.8393C485.355 67.3613 485.682 67.6875 486.138 67.6875H487.378C487.835 67.6875 488.226 67.296 488.226 66.8393V52.8758C488.226 51.114 488.031 49.548 487.639 48.1778C488.487 47.1338 491.358 43.7408 496.252 43.7408C501.146 43.7408 503.756 46.8728 503.756 52.8758V66.8393C503.756 67.3613 504.082 67.6875 504.474 67.6875H505.779C506.235 67.6875 506.627 67.296 506.627 66.8393V52.8758C506.627 45.5678 503.56 40.935 496.448 40.935C491.097 40.935 487.443 44.6543 486.66 45.6983C485.029 42.6315 482.093 40.935 478.113 40.935C472.827 40.935 469.826 44.067 469.108 45.0458L468.782 42.24C468.717 41.8485 468.456 41.5875 468.064 41.5875H467.281C466.824 41.5875 466.433 41.979 466.433 42.4358V66.8393Z" fill="#212121"/>
<path d="M179.159 111.797C179.159 119.626 185.488 125.434 192.796 125.434C197.298 125.434 200.822 123.28 202.91 119.953C203.366 119.3 203.105 118.648 202.453 118.126L200.691 116.69C200.104 116.233 199.517 116.234 198.929 116.821C197.559 118.126 196.189 119.822 192.861 119.822C188.62 119.822 185.357 116.234 185.357 111.731C185.357 107.294 188.685 103.706 192.926 103.706C195.08 103.706 196.972 104.88 198.146 106.185C198.668 106.642 199.125 107.164 199.908 106.446L202.061 104.489C202.649 104.032 202.779 103.249 202.322 102.662C199.908 99.66 196.841 98.0288 192.861 98.0288C185.618 98.0288 179.159 104.097 179.159 111.797ZM213.976 111.666C213.976 119.17 219.848 125.434 227.156 125.434C234.464 125.434 240.337 119.17 240.337 111.666C240.337 104.293 234.464 98.0288 227.156 98.0288C219.848 98.0288 213.976 104.293 213.976 111.666ZM219.783 111.666C219.783 107.294 223.045 103.706 227.156 103.706C231.267 103.706 234.53 107.294 234.53 111.666C234.53 116.168 231.267 119.822 227.156 119.822C223.045 119.822 219.783 116.168 219.783 111.666ZM252.971 113.102C252.971 119.888 255.712 125.434 263.542 125.434C268.826 125.434 271.566 122.367 272.154 121.845L272.806 123.737C273.002 124.325 273.328 124.781 273.981 124.781H275.808C276.46 124.781 277.047 124.194 277.047 123.542V99.921C277.047 99.2685 276.46 98.6813 275.808 98.6813H272.415C271.501 98.6813 270.979 98.877 270.979 99.921V115.516C270.783 116.69 268.369 119.822 264.519 119.822C261.193 119.822 259.17 117.539 259.17 113.297V99.921C259.17 99.2685 258.583 98.6813 257.93 98.6813H254.211C253.558 98.6813 252.971 99.2685 252.971 99.921V113.102ZM292.066 123.542C292.066 124.194 292.653 124.781 293.305 124.781H296.698C297.808 124.781 298.199 124.39 298.199 123.542V107.621C298.525 106.707 301.331 103.706 305.442 103.706C308.835 103.706 310.858 105.989 310.858 110.165V123.542C310.858 124.194 311.38 124.781 312.097 124.781H315.817C316.469 124.781 317.056 124.194 317.056 123.542V110.426C317.056 103.64 314.12 98.0288 306.16 98.0288C300.94 98.0288 297.481 101.161 297.025 101.683L296.242 99.4643C296.111 99.0075 295.72 98.6813 295.198 98.6813H293.305C292.653 98.6813 292.066 99.2685 292.066 99.921V123.542ZM330.552 122.759C331.923 123.868 334.794 125.434 339.165 125.434C344.973 125.434 348.822 121.845 348.822 117.799C348.822 112.906 344.907 110.883 340.144 108.795C337.599 107.686 335.968 106.968 335.968 105.272C335.968 104.293 336.686 103.314 338.904 103.314C341.384 103.314 344.255 104.684 344.255 104.684C344.777 104.945 345.625 104.75 345.951 104.162L347.126 101.944C347.517 101.291 347.191 100.443 346.604 100.052C345.299 99.2033 342.558 98.0288 338.904 98.0288C332.64 98.0288 329.965 101.944 329.965 105.206C329.965 109.513 333.358 111.992 337.404 113.754C340.992 115.385 342.428 116.234 342.428 117.995C342.428 119.431 341.188 120.214 339.231 120.214C336.033 120.214 333.162 118.517 333.162 118.517C332.51 118.126 331.792 118.322 331.531 118.844L330.161 121.388C329.9 121.91 330.161 122.498 330.552 122.759ZM359.743 111.731C359.743 119.235 364.964 125.434 372.859 125.434C377.231 125.434 380.624 123.803 382.516 122.171C383.299 121.519 383.103 120.997 382.646 120.475L380.819 117.995C380.297 117.343 379.84 117.604 379.058 118.061C377.753 118.909 375.599 119.953 373.25 119.953C369.009 119.953 365.942 116.494 365.747 112.971H383.495C384.082 112.971 384.604 112.514 384.669 111.862C384.734 111.405 384.799 110.557 384.799 110.1C384.799 103.118 379.579 98.0288 372.794 98.0288C364.964 98.0288 359.743 104.358 359.743 111.731ZM366.073 108.86C366.464 105.598 369.205 103.053 372.728 103.053C375.925 103.053 378.536 105.728 378.731 108.86H366.073ZM397.602 123.542C397.602 124.194 398.189 124.781 398.842 124.781H402.561C403.214 124.781 403.801 124.194 403.801 123.542V80.346C403.801 79.6935 403.214 79.1063 402.561 79.1063H398.842C398.189 79.1063 397.602 79.6935 397.602 80.346V123.542ZM421.783 88.0455C423.936 88.0455 425.632 86.349 425.632 84.261C425.632 82.1078 423.936 80.4113 421.783 80.4113C419.695 80.4113 418.063 82.1078 418.063 84.261C418.063 86.349 419.695 88.0455 421.783 88.0455ZM418.781 123.542C418.781 124.194 419.368 124.781 420.021 124.781H423.74C424.393 124.781 424.98 124.194 424.98 123.542V99.921C424.98 99.2685 424.393 98.6813 423.74 98.6813H420.021C419.368 98.6813 418.781 99.2685 418.781 99.921V123.542ZM439.963 123.542C439.963 124.194 440.55 124.781 441.203 124.781H444.596C445.705 124.781 446.096 124.39 446.096 123.542V107.621C446.423 106.707 449.228 103.706 453.339 103.706C456.732 103.706 458.755 105.989 458.755 110.165V123.542C458.755 124.194 459.277 124.781 459.995 124.781H463.714C464.366 124.781 464.954 124.194 464.954 123.542V110.426C464.954 103.64 462.017 98.0288 454.057 98.0288C448.837 98.0288 445.379 101.161 444.922 101.683L444.139 99.4643C444.008 99.0075 443.617 98.6813 443.095 98.6813H441.203C440.55 98.6813 439.963 99.2685 439.963 99.921V123.542ZM477.011 123.215C477.011 127.587 480.47 129.349 481.84 129.74V129.936C481.187 130.327 477.99 132.155 477.99 136.069C477.99 140.311 481.709 145.009 490.91 145.009C499.588 145.009 504.808 139.919 504.808 134.177C504.808 128.501 500.24 125.434 494.564 125.434H485.69C483.732 125.434 482.558 124.259 482.558 122.759C482.558 120.671 484.776 119.561 485.233 119.561C485.755 119.561 487.582 120.605 490.91 120.605C497.696 120.605 502.002 115.516 502.002 109.969C502.002 105.076 499.196 102.988 499.196 102.988L502.785 102.009C503.242 101.944 503.503 101.357 503.503 100.9V99.2685C503.503 98.5508 502.981 98.0288 502.263 98.0288H490.844C484.189 98.0288 479.621 103.379 479.621 109.448C479.621 113.363 481.644 115.777 481.644 115.777C481.644 115.777 477.011 118.191 477.011 123.215ZM490.975 115.581C487.647 115.581 485.233 113.102 485.233 109.578C485.233 106.055 487.647 103.575 490.975 103.575C494.237 103.575 496.456 106.055 496.456 109.578C496.456 113.102 494.237 115.581 490.975 115.581ZM484.058 135.026C484.058 132.089 487.256 131.045 487.647 130.915C489.539 130.784 491.497 130.784 493.389 130.784C497.63 130.784 498.283 133.459 498.283 134.504C498.283 137.636 494.825 139.658 490.844 139.658C486.864 139.658 484.058 137.701 484.058 135.026Z" fill="#212121"/>
<path d="M180.594 65.4038C182.03 66.513 184.705 68.34 189.142 68.34C194.362 68.34 198.407 65.0123 198.407 61.0973C198.407 56.334 194.101 54.7028 189.207 52.8758C185.358 51.5055 183.008 50.2658 183.008 47.6558C183.008 45.894 184.509 43.4798 188.62 43.4798C191.426 43.4798 194.036 44.9153 194.623 45.3068C195.08 45.5678 195.602 45.4373 195.863 44.9805L196.254 44.2628C196.515 43.806 196.385 43.284 195.993 43.023C194.688 42.1748 192.078 40.935 188.62 40.935C182.617 40.935 180.072 44.85 180.072 47.721C180.072 51.7665 183.465 53.7893 188.098 55.4205C192.47 57.0518 195.406 58.2915 195.406 61.293C195.406 63.8378 192.861 65.9258 189.142 65.9258C185.488 65.9258 182.813 63.903 182.16 63.381C181.704 62.9895 181.182 63.12 180.986 63.4463L180.333 64.4903C180.138 64.8165 180.333 65.208 180.594 65.4038ZM208.79 65.6648C209.508 66.3173 212.248 68.34 216.555 68.34C224.254 68.34 229.735 62.337 229.735 54.6375C229.735 47.0033 224.385 40.935 217.142 40.935C212.379 40.935 209.377 43.4145 208.594 44.067L208.398 42.24C208.333 41.7833 208.072 41.5875 207.615 41.5875H206.898C206.441 41.5875 205.984 41.9138 205.984 42.4358V86.4143C205.984 86.871 206.376 87.2625 206.832 87.2625H207.942C208.398 87.2625 208.79 86.871 208.79 86.4143V65.6648ZM208.855 62.5328V47.2643C209.051 46.938 211.857 43.6103 216.946 43.6103C222.884 43.6103 226.864 48.504 226.864 54.5723C226.864 60.771 222.558 65.5995 216.228 65.5995C211.791 65.5995 208.986 62.7938 208.855 62.5328ZM239.216 28.7985C240.456 28.7985 241.435 27.8198 241.435 26.6453C241.435 25.4055 240.456 24.3615 239.216 24.3615C237.976 24.3615 236.998 25.4055 236.998 26.6453C236.998 27.8198 237.976 28.7985 239.216 28.7985ZM237.781 66.8393C237.781 67.296 238.042 67.6875 238.498 67.6875H239.803C240.391 67.6875 240.652 67.3613 240.652 66.8393V42.4358C240.652 41.979 240.26 41.5875 239.803 41.5875H238.629C238.172 41.5875 237.781 41.979 237.781 42.4358V66.8393ZM250.589 66.8393C250.589 67.296 250.85 67.6875 251.306 67.6875H252.611C253.199 67.6875 253.46 67.3613 253.46 66.8393V48.243C253.655 47.8515 256.135 43.7408 261.224 43.7408C262.986 43.7408 264.291 44.3933 264.617 44.5238C265.074 44.7195 265.465 44.6543 265.661 44.1975L266.183 42.8925C266.379 42.3705 266.053 41.9138 265.465 41.718C264.943 41.5223 263.508 40.935 261.42 40.935C256.526 40.935 253.916 44.067 253.264 44.9805L253.003 42.3053C252.938 41.8485 252.611 41.5875 252.22 41.5875H251.437C250.98 41.5875 250.589 41.979 250.589 42.4358V66.8393ZM273.179 28.7985C274.418 28.7985 275.397 27.8198 275.397 26.6453C275.397 25.4055 274.418 24.3615 273.179 24.3615C271.939 24.3615 270.96 25.4055 270.96 26.6453C270.96 27.8198 271.939 28.7985 273.179 28.7985ZM271.743 66.8393C271.743 67.296 272.004 67.6875 272.461 67.6875H273.766C274.353 67.6875 274.614 67.3613 274.614 66.8393V42.4358C274.614 41.979 274.223 41.5875 273.766 41.5875H272.591C272.135 41.5875 271.743 41.979 271.743 42.4358V66.8393ZM285.66 60.9668C285.66 65.1428 286.117 68.34 291.533 68.34C295.252 68.34 298.123 66.7088 299.102 65.9258C299.493 65.6648 299.559 65.2733 299.298 64.8165L298.841 64.0335C298.645 63.7073 298.384 63.4463 297.797 63.7725C296.949 64.2945 294.143 65.5343 291.859 65.5343C288.792 65.5343 288.466 63.8378 288.466 60.771V44.1323H297.536C298.058 44.1323 298.384 43.806 298.384 43.284V42.4358C298.384 41.979 298.058 41.5875 297.536 41.5875H288.466V34.41C288.466 33.9533 288.075 33.5618 287.618 33.5618L286.509 33.627C286.052 33.627 285.66 33.9533 285.66 34.4753V41.5875H282.594C282.137 41.5875 281.811 41.7833 281.811 42.24V43.284C281.811 43.806 281.941 44.1323 282.594 44.1323H285.66V60.9668Z" fill="#212121"/>
<path fill-rule="evenodd" clip-rule="evenodd" d="M55.1948 122C55.1948 122 74.0616 158.758 85.9775 166.363C85.9775 166.363 104.844 151.153 114.774 123.267" fill="#68A357" fill-opacity="0.67"/>
<path d="M55.1948 122C55.1948 122 74.0616 158.758 85.9775 166.363C85.9775 166.363 104.844 151.153 114.774 123.267" stroke="#212121" stroke-width="2"/>
<path fill-rule="evenodd" clip-rule="evenodd" d="M59.4639 49.8115C59.4639 49.8115 65.0106 18.3925 82.5754 2C82.5754 2 99.2156 8.83021 111.234 49.8115" fill="#D67171" fill-opacity="0.51"/>
<path d="M60.2808 44.9091C60.2808 44.9091 65.6522 16.7116 82.6618 2C82.6618 2 98.7763 8.12987 110.415 44.9091" stroke="#212121" stroke-width="2"/>
<path fill-rule="evenodd" clip-rule="evenodd" d="M70.3623 78.8125C70.3623 78.8125 79.5422 37.1286 123.772 8.54541C123.772 8.54541 138.793 22.837 136.29 68.0937" fill="#D67171"/>
<path d="M71.1792 74.7272C71.1792 74.7272 80.2458 35.4668 123.93 8.54541C123.93 8.54541 138.766 22.0061 136.293 64.6316" stroke="#212121" stroke-width="2"/>
<path fill-rule="evenodd" clip-rule="evenodd" d="M34.124 66.5775C34.124 66.5775 35.6851 15.6514 45.0511 8.54541C45.0511 8.54541 99.6861 33.4163 109.052 132.9" fill="#D67171"/>
<path d="M34.124 63.5271C34.124 63.5271 35.6681 15.2778 44.932 8.54541C44.932 8.54541 98.9711 32.109 108.235 126.363" stroke="#212121" stroke-width="2"/>
<path fill-rule="evenodd" clip-rule="evenodd" d="M49.1663 116.306C49.1663 116.306 38.9724 125.944 40.8837 147.972C40.8837 147.972 63.82 156.233 84.2077 121.813C84.2077 121.813 100.773 154.168 130.717 147.972C130.717 147.972 132.629 127.321 120.523 115.618" fill="#68A357"/>
<path d="M49.1663 116.306C49.1663 116.306 38.9724 125.944 40.8837 147.972C40.8837 147.972 63.82 156.233 84.2077 121.813C84.2077 121.813 100.773 154.168 130.717 147.972C130.717 147.972 132.629 127.321 120.523 115.618" stroke="#212121" stroke-width="2"/>
<path fill-rule="evenodd" clip-rule="evenodd" d="M84.2077 121.813C84.2077 121.813 83.5705 32.3217 166.396 34.3869C166.396 34.3869 177.863 119.748 84.2077 121.813Z" fill="#BB4242" stroke="#212121" stroke-width="2"/>
<path fill-rule="evenodd" clip-rule="evenodd" d="M84.2076 121.813C84.2076 121.813 83.5704 28.1914 1.38218 34.3869C1.38218 34.3869 -9.44884 119.748 84.2076 121.813Z" fill="#BB4242" stroke="#212121" stroke-width="2"/>
</svg>
