<svg width="91" height="76" viewBox="0 0 91 76" fill="none" xmlns="http://www.w3.org/2000/svg">
<path d="M41.134 2.09989L41.1355 2.09892C42.4469 1.26821 43.9454 0.856131 45.5007 0.867956C46.2892 0.873015 47.3128 1.13677 48.2921 1.49904C49.2733 1.86207 50.2249 2.32965 50.872 2.75324L41.134 2.09989ZM41.134 2.09989L31.2144 8.57024H16.6699C14.6604 8.57024 12.7665 9.27686 11.404 10.4165C10.0425 11.5554 9.20482 13.1338 9.33016 14.874V22.831L3.24242 26.7963L41.134 2.09989ZM59.8026 8.57024L50.8722 2.75341L3.24209 26.7965C1.41802 27.977 0.330589 29.8303 0.320833 31.8027V31.8034V68.8334C0.320833 72.3128 3.64839 75.1323 7.66059 75.1323H83.3389C87.3511 75.1323 90.6787 72.3128 90.6787 68.8334V31.8305V31.6982H90.6737C90.628 29.7613 89.5515 27.9534 87.7537 26.7934C87.7536 26.7933 87.7535 26.7933 87.7534 26.7932L81.6694 22.831V14.8692C81.6694 11.3904 78.3409 8.57024 74.3296 8.57024H59.8026ZM45.5303 4.20381L45.5304 4.20381C46.2712 4.20946 47.0079 4.42 47.6267 4.82646L47.6271 4.82672L53.3705 8.57024H37.6319L43.4203 4.79147C43.4206 4.79131 43.4208 4.79115 43.4211 4.79099C44.0474 4.39399 44.7895 4.19766 45.5303 4.20381ZM32.3296 11.9181L32.3947 11.9878L32.4878 11.9265L32.5005 11.9181H74.3296C75.3062 11.9181 76.2061 12.2499 76.845 12.7847C77.4832 13.3189 77.857 14.051 77.8014 14.8601L77.801 14.8646V14.8692V38.9809L58.7679 50.9387L49.9277 45.3048L49.9275 45.3047C47.3463 43.667 43.7264 43.6255 41.1355 45.2654L41.1352 45.2657L32.2386 50.9357L13.1985 38.9778V14.8692C13.1985 13.2396 14.7113 11.9181 16.6699 11.9181H32.3296ZM77.9333 14.8692V39.054V14.8692ZM85.4416 29.4782L85.4421 29.4786C86.3088 30.0379 86.7988 30.898 86.8033 31.8131C86.8078 32.7299 86.3534 33.5851 85.4952 34.149C85.4948 34.1493 85.4944 34.1495 85.494 34.1498L81.6694 36.5533V27.0191L85.4416 29.4782ZM5.56444 29.4786L5.56494 29.4783L9.33016 27.025V36.5473L5.53714 34.1648C5.53676 34.1646 5.53639 34.1643 5.53602 34.1641C4.67544 33.599 4.18463 32.7273 4.18915 31.8131C4.19367 30.8991 4.6967 30.0384 5.56444 29.4786ZM45.5303 47.3733H45.5304C46.2716 47.379 47.0082 47.5863 47.6266 47.993L47.6282 47.994L84.625 71.57C84.2278 71.7054 83.7972 71.7844 83.3389 71.7844H7.66059C7.20221 71.7844 6.77151 71.7058 6.37439 71.5701L43.434 47.9613C43.4341 47.9612 43.4343 47.9611 43.4344 47.961C44.0594 47.5679 44.7943 47.3673 45.5303 47.3733ZM23.8774 20.9065C22.826 20.9065 21.9432 21.6348 21.9432 22.5805C21.9432 23.5264 22.826 24.2544 23.8774 24.2544H50.9054C51.9565 24.2544 52.8395 23.5264 52.8395 22.5805C52.8395 21.6347 51.9566 20.9065 50.9054 20.9065H23.8774ZM23.8774 27.0732C22.826 27.0732 21.9432 27.8014 21.9432 28.7471C21.9432 29.693 22.826 30.4211 23.8774 30.4211H38.2923C39.3435 30.4211 40.2265 29.693 40.2265 28.7471C40.2265 27.8014 39.3435 27.0732 38.2923 27.0732H23.8774ZM45.4998 27.0732C44.4486 27.0732 43.5656 27.8014 43.5656 28.7471C43.5656 29.693 44.4486 30.4211 45.4998 30.4211H67.1221C68.1733 30.4211 69.0563 29.693 69.0563 28.7471C69.0563 27.8014 68.1733 27.0732 67.1221 27.0732H45.4998ZM23.8774 33.2398C22.8262 33.2398 21.9432 33.968 21.9432 34.9138C21.9432 35.8597 22.8262 36.5877 23.8774 36.5877H45.4998C46.551 36.5877 47.4339 35.8596 47.4339 34.9138C47.4339 33.968 46.551 33.2398 45.4998 33.2398H23.8774ZM52.7072 33.2398C51.656 33.2398 50.7731 33.968 50.7731 34.9138C50.7731 35.8596 51.656 36.5877 52.7072 36.5877H61.7165C62.7677 36.5877 63.6507 35.8597 63.6507 34.9138C63.6507 33.968 62.7677 33.2398 61.7165 33.2398H52.7072ZM62.0343 53.0171L86.8104 37.4536V68.8096L62.0343 53.0171ZM4.18915 68.8066V37.4566L28.9652 53.0201L4.18915 68.8066Z" fill="white" stroke="white"/>
</svg>
