<svg width="91" height="90" viewBox="0 0 91 90" fill="none" xmlns="http://www.w3.org/2000/svg">
<path d="M66.3347 0C53.5689 0 43.0698 9.43548 42.1926 21.3627L28.1508 17.2107C27.866 17.1336 27.5651 17.1107 27.271 17.1437C27.1166 17.1512 2.03795 24.5102 2.03795 24.5102C1.11795 24.7823 0.441066 25.6696 0.454292 26.5861V87.8616C0.456995 89.1976 2.03433 90.3006 3.37527 89.9041L27.4821 82.8054L51.589 89.9041C52.0212 90.0319 52.4941 90.0319 52.9263 89.9041L77.7018 82.6045C78.6105 82.3357 79.2837 81.4676 79.2855 80.5621V45.0022C80.2679 43.884 81.2478 42.7442 82.1713 41.5869C86.7183 35.8888 90.426 29.7012 90.5471 23.0369C90.5475 23.0146 90.5475 22.9922 90.5471 22.9699C90.5471 10.2853 79.6719 1.07143e-05 66.3347 0V0ZM66.3347 4.28591C77.2293 4.28591 86.023 12.593 86.0425 22.9364C86.0423 22.9471 86.0427 22.9593 86.0425 22.9699C85.9366 28.1086 82.8684 33.6031 78.5816 38.9751C74.8123 43.6984 70.2942 48.2477 66.3347 52.5025C62.3742 48.2438 57.8541 43.7377 54.0877 39.0086C49.8095 33.6369 46.7326 28.1106 46.6269 22.9699C46.6269 22.9584 46.6268 22.9477 46.6269 22.9364C46.6462 12.589 55.44 4.28598 66.3347 4.28598V4.28591ZM66.3347 11.7863C59.8307 11.7863 54.51 16.8487 54.51 23.0369C54.51 29.225 59.8307 34.2874 66.3347 34.2874C72.8386 34.2874 78.1593 29.225 78.1593 23.0369C78.1593 16.8487 72.8386 11.7863 66.3347 11.7863ZM66.3347 16.0722C70.4041 16.0722 73.6547 19.165 73.6547 23.0369C73.6547 26.9087 70.4041 30.0015 66.3347 30.0015C62.2652 30.0015 59.0146 26.9087 59.0146 23.0369C59.0146 19.165 62.2652 16.0722 66.3347 16.0722ZM25.2298 22.1998V78.9548L4.95893 84.9152V28.1599L25.2298 22.1998ZM29.7345 22.1998L42.4038 25.9165C43.3076 31.2424 46.3556 36.2349 50.0053 40.9172C50.011 40.9247 49.9997 40.9435 50.0053 40.9507V84.9152L29.7345 78.9548V22.1997V22.1998ZM54.51 46.2747C58.0187 50.1748 61.6629 53.8156 64.6102 57.0899C65.4528 58.0207 67.1813 58.0207 68.0239 57.0899C70.0357 54.8549 72.3725 52.4651 74.7809 49.9244V78.9548L54.51 84.9152V46.2747Z" fill="white"/>
</svg>
