<svg width="130" height="89" viewBox="0 0 130 89" fill="none" xmlns="http://www.w3.org/2000/svg">
<path d="M85.759 32.4968C85.759 30.918 84.4083 29.6369 82.7436 29.6369C81.0789 29.6369 79.7281 30.918 79.7281 32.4968V33.2658H79.0758C73.0593 33.2658 68.1631 37.3549 68.1631 42.3836V42.7223C68.1631 45.6273 70.2109 48.1185 74.2502 50.1275C74.4979 50.2504 74.7643 50.3406 75.0408 50.3938L75.2496 50.4334C75.3 50.4471 75.3446 50.4676 75.3965 50.4785L79.731 51.3185V58.8671H79.0787C76.429 58.8671 74.1883 57.3019 74.1883 55.4499C74.1883 53.8711 72.8375 52.59 71.1728 52.59C69.5081 52.59 68.1574 53.8711 68.1574 55.4499C68.1574 60.4882 73.0564 64.5855 79.0787 64.5855H79.731V65.644C79.731 67.2228 81.0818 68.5039 82.7465 68.5039C84.4112 68.5039 85.7619 67.2228 85.7619 65.644V64.5719C91.6315 64.4298 96.3563 60.3967 96.3563 55.4485V55.1153C96.3563 53.109 95.2792 50.1781 90.1454 47.6145C90.0576 47.5722 89.9568 47.5558 89.8675 47.5216C89.7854 47.4875 89.699 47.4629 89.6112 47.4342C89.5204 47.4069 89.4369 47.3618 89.3433 47.3441L89.1604 47.3099L85.7605 46.6462V39.0061C88.2719 39.129 90.3398 40.6177 90.3398 42.3836C90.3398 43.9624 91.6906 45.2435 93.3553 45.2435C95.0199 45.2435 96.3707 43.9624 96.3707 42.3836C96.3707 37.4464 91.6402 33.4201 85.7619 33.2794V32.4968H85.759ZM90.324 55.4513C90.324 57.2281 88.2618 58.7237 85.759 58.8438V52.4876L87.6973 52.8631C89.8689 54.0159 90.324 54.9282 90.324 55.1167V55.4513ZM76.6911 44.8775C74.6549 43.7999 74.194 42.9654 74.194 42.7223V42.3836C74.194 40.5398 76.4304 38.9856 79.0772 38.9856H79.7296V45.4703L76.6911 44.8775Z" fill="white"/>
<path d="M73.7186 77.7625C76.4273 78.4563 79.1778 78.8005 81.911 78.7978C87.3025 78.7978 92.6292 77.4607 97.4303 74.8425C104.664 70.8968 109.845 64.5159 112.019 56.8745C114.849 46.9303 112.112 36.489 104.698 28.9432C103.562 27.7877 101.655 27.7263 100.437 28.8011C99.2189 29.8787 99.1512 31.687 100.287 32.8424C106.269 38.9324 108.478 47.3592 106.197 55.3858C104.442 61.5508 100.263 66.7012 94.4235 69.8861C88.5841 73.0684 81.79 73.9056 75.2896 72.2421C68.7864 70.5772 63.3589 66.6137 60.0007 61.0756C56.6454 55.5374 55.7627 49.0937 57.5137 42.9286C59.2692 36.7608 63.451 31.6132 69.2875 28.4283C75.124 25.246 81.9182 24.4088 88.4214 26.075C90.0242 26.4807 91.6845 25.5847 92.1166 24.0578C92.5529 22.535 91.5996 20.963 89.9925 20.5532C81.9369 18.4909 73.5141 19.5262 66.2793 23.4719C59.0445 27.4176 53.8647 33.7985 51.6902 41.4399C49.5186 49.08 50.6131 57.0657 54.7733 63.9273C58.9336 70.7889 65.663 75.7002 73.7186 77.7625Z" fill="white"/>
<path d="M126.986 9.31158H34.4632C33.5372 9.31158 32.6631 9.71448 32.0929 10.4056L23.0724 21.2921C21.5532 12.8735 17.7342 2.08531 12.1367 0.282496C10.9026 -0.114942 7.73164 -0.646224 4.92787 2.99764C-2.21042 12.2862 -1.03823 30.7965 4.89187 38.8709C5.33685 39.4759 5.9215 40.2708 6.61273 41.1626L1.45449 47.3892C0.596223 48.4272 0.596223 49.8858 1.45449 50.9238L32.0914 87.906C32.6617 88.5971 33.5372 89 34.4617 89L115.656 88.9973C119.478 88.9973 123.078 87.5782 125.792 85.0065C128.51 82.432 130.003 79.0231 130 75.4065V12.1701C130.001 10.5913 128.651 9.31158 126.986 9.31158ZM9.83842 35.6026C5.13812 29.1999 4.26113 13.5769 9.80242 6.36699C10.0559 6.03647 10.2503 5.85756 10.3684 5.76742C13.0296 7.09904 17.619 19.7952 17.7659 27.7003L10.498 36.4712C10.2776 36.1776 10.0674 35.9113 9.83842 35.6026ZM123.971 75.4038C123.971 77.4948 123.104 79.4669 121.533 80.957C119.954 82.4511 117.868 83.2747 115.657 83.2747L35.9291 83.2774L7.65964 49.1551L10.534 45.6847C13.6502 48.8533 17.583 51.7774 21.7173 52.026C22.6318 53.1541 24.0517 53.893 25.6631 53.893C28.4193 53.893 30.6615 51.7665 30.6615 49.1551C30.6615 46.541 28.4193 44.4173 25.6631 44.4173C24.0819 44.4173 22.6851 45.1316 21.7677 46.2228C20.2658 45.9906 17.858 44.8461 14.3371 41.093L23.2193 30.369C23.2308 30.3581 23.2395 30.3471 23.2481 30.3376L35.9306 15.0287H123.973V75.4038H123.971Z" fill="white"/>
</svg>
